<?xml version="1.0" encoding="UTF-8" standalone="no"?>
<!-- Created with Inkscape (http://www.inkscape.org/) -->

<svg
   xmlns:dc="http://purl.org/dc/elements/1.1/"
   xmlns:cc="http://creativecommons.org/ns#"
   xmlns:rdf="http://www.w3.org/1999/02/22-rdf-syntax-ns#"
   xmlns:svg="http://www.w3.org/2000/svg"
   xmlns="http://www.w3.org/2000/svg"
   xmlns:sodipodi="http://sodipodi.sourceforge.net/DTD/sodipodi-0.dtd"
   xmlns:inkscape="http://www.inkscape.org/namespaces/inkscape"
   version="1.1"
   width="488.26749"
   height="495.19125"
   id="svg2"
   xml:space="preserve"
   sodipodi:docname="skype_missed.svg"
   inkscape:version="0.92.3 (2405546, 2018-03-11)"><metadata
     id="metadata37"><rdf:RDF><cc:Work
         rdf:about=""><dc:format>image/svg+xml</dc:format><dc:type
           rdf:resource="http://purl.org/dc/dcmitype/StillImage" /></cc:Work></rdf:RDF></metadata><sodipodi:namedview
     pagecolor="#ffffff"
     bordercolor="#666666"
     borderopacity="1"
     objecttolerance="10"
     gridtolerance="10"
     guidetolerance="10"
     inkscape:pageopacity="0"
     inkscape:pageshadow="2"
     inkscape:window-width="1920"
     inkscape:window-height="1015"
     id="namedview35"
     showgrid="false"
     inkscape:zoom="0.6739909"
     inkscape:cx="-35.284034"
     inkscape:cy="247.49109"
     inkscape:window-x="1680"
     inkscape:window-y="0"
     inkscape:window-maximized="1"
     inkscape:current-layer="g14" /><defs
     id="defs6"><clipPath
       id="clipPath18"><path
         d="m 0,841.89 595.276,0 L 595.276,0 0,0 0,841.89 z"
         id="path20" /></clipPath><linearGradient
       x1="0"
       y1="0"
       x2="1"
       y2="0"
       id="linearGradient36"
       gradientUnits="userSpaceOnUse"
       gradientTransform="matrix(-1.53e-5,366.70361,366.70361,1.53e-5,298.67236,235.61719)"
       spreadMethod="pad"><stop
         id="stop38"
         style="stop-color:#ffffff;stop-opacity:1"
         offset="0" /><stop
         id="stop40"
         style="stop-color:#00aaf1;stop-opacity:1"
         offset="0.80898899" /><stop
         id="stop42"
         style="stop-color:#00aaf1;stop-opacity:1"
         offset="1" /></linearGradient><clipPath
       id="clipPath50"><path
         d="m 118.089,602.321 349.605,0 0,-227.59 -349.605,0 0,227.59 z"
         id="path52" /></clipPath><linearGradient
       x1="0"
       y1="0"
       x2="1"
       y2="0"
       id="linearGradient58"
       gradientUnits="userSpaceOnUse"
       gradientTransform="matrix(349.60547,0,0,-349.60547,118.08887,488.52637)"
       spreadMethod="pad"><stop
         id="stop60"
         style="stop-color:#ffffff;stop-opacity:1"
         offset="0" /><stop
         id="stop62"
         style="stop-color:#00aaf1;stop-opacity:1"
         offset="1" /></linearGradient></defs><g
     transform="matrix(1.25,0,0,-1.25,-129.20625,771.3075)"
     id="g12"><g
       id="g14"><path
         inkscape:connector-curvature="0"
         style="fill:#00aaf1;fill-opacity:1;fill-rule:nonzero;stroke:none"
         id="path22"
         d="m 482.739,376.915 c 2.817,12.881 4.315,26.252 4.315,39.977 0,102.889 -83.411,186.302 -186.305,186.302 -10.863,0 -21.507,-0.94 -31.861,-2.725 -16.651,10.488 -36.35,16.577 -57.482,16.577 -59.67,0 -108.041,-48.375 -108.041,-108.039 0,-19.945 5.427,-38.613 14.851,-54.649 -2.471,-12.103 -3.77,-24.632 -3.77,-37.466 0,-102.892 83.409,-186.304 186.303,-186.304 11.654,0 23.054,1.079 34.113,3.126 15.21,-8.175 32.599,-12.821 51.076,-12.821 59.671,0 108.041,48.371 108.041,108.041 0,17.239 -4.057,33.522 -11.24,47.981" /><g
         id="g48" /><path
         inkscape:connector-curvature="0"
         style="fill:#ffffff;fill-opacity:1;fill-rule:nonzero;stroke:none"
         id="path78"
         d="m 244.849,539.362 v 0 c -15.665,-5.793 -27.832,-14.24 -36.163,-25.106 -8.394,-10.943 -12.651,-23.628 -12.651,-37.702 0,-14.765 4.055,-27.327 12.055,-37.337 7.877,-9.861 18.645,-17.739 32.005,-23.423 13.065,-5.556 29.492,-10.472 48.826,-14.613 14.218,-2.977 25.713,-5.824 34.182,-8.463 8.121,-2.532 14.808,-6.222 19.877,-10.963 4.842,-4.535 7.196,-10.317 7.196,-17.672 0,-9.309 -4.509,-16.912 -13.788,-23.246 -9.498,-6.485 -22.124,-9.774 -37.527,-9.774 -11.2,0 -20.305,1.621 -27.058,4.819 -6.715,3.175 -11.972,7.239 -15.625,12.076 -3.802,5.03 -7.403,11.414 -10.704,18.975 -2.955,6.945 -6.635,12.322 -10.924,15.956 -4.488,3.794 -10.009,5.715 -16.411,5.715 -7.799,0 -14.339,-2.432 -19.443,-7.233 -5.156,-4.844 -7.772,-10.763 -7.772,-17.59 0,-10.923 4.014,-22.249 11.928,-33.664 7.836,-11.302 18.156,-20.459 30.674,-27.22 17.51,-9.289 39.946,-13.995 66.703,-13.995 22.293,0 41.881,3.444 58.22,10.235 16.497,6.86 29.232,16.523 37.85,28.719 8.649,12.244 13.035,26.232 13.035,41.578 0,12.826 -2.548,23.864 -7.575,32.806 -5.014,8.909 -12.08,16.372 -21.004,22.184 -8.742,5.687 -19.465,10.585 -31.87,14.556 -12.253,3.916 -26.111,7.542 -41.187,10.778 -11.912,2.754 -20.6,4.882 -25.779,6.319 -5.053,1.396 -10.098,3.352 -14.995,5.813 -4.721,2.362 -8.455,5.201 -11.103,8.435 -2.501,3.052 -3.717,6.601 -3.717,10.845 0,6.921 3.778,12.763 11.549,17.858 8.063,5.288 18.924,7.968 32.28,7.968 14.38,0 24.843,-2.416 31.103,-7.179 6.45,-4.902 12.074,-11.861 16.72,-20.688 4.014,-6.913 7.632,-11.718 11.118,-14.8 3.748,-3.319 9.147,-5.003 16.047,-5.003 7.595,0 14.032,2.69 19.134,7.996 5.071,5.272 7.643,11.32 7.643,17.977 0,6.918 -1.962,14.068 -5.828,21.253 -3.826,7.114 -9.922,13.964 -18.114,20.364 -8.135,6.355 -18.487,11.519 -30.768,15.343 -12.21,3.797 -26.838,5.72 -43.476,5.72 -20.811,0 -39.202,-2.899 -54.663,-8.617" /><path
         inkscape:connector-curvature="0"
         style="fill:none;stroke:#00aaf1;stroke-width:1;stroke-linecap:butt;stroke-linejoin:miter;stroke-miterlimit:4;stroke-dasharray:none;stroke-opacity:1"
         id="path80"
         d="m 244.849,539.362 v 0 c -15.665,-5.793 -27.832,-14.24 -36.163,-25.106 -8.394,-10.943 -12.651,-23.628 -12.651,-37.702 0,-14.765 4.055,-27.327 12.055,-37.337 7.877,-9.861 18.645,-17.739 32.005,-23.423 13.065,-5.556 29.492,-10.472 48.826,-14.613 14.218,-2.977 25.713,-5.824 34.182,-8.463 8.121,-2.532 14.808,-6.222 19.877,-10.963 4.842,-4.535 7.196,-10.317 7.196,-17.672 0,-9.309 -4.509,-16.912 -13.788,-23.246 -9.498,-6.485 -22.124,-9.774 -37.527,-9.774 -11.2,0 -20.305,1.621 -27.058,4.819 -6.715,3.175 -11.972,7.239 -15.625,12.076 -3.802,5.03 -7.403,11.414 -10.704,18.975 -2.955,6.945 -6.635,12.322 -10.924,15.956 -4.488,3.794 -10.009,5.715 -16.411,5.715 -7.799,0 -14.339,-2.432 -19.443,-7.233 -5.156,-4.844 -7.772,-10.763 -7.772,-17.59 0,-10.923 4.014,-22.249 11.928,-33.664 7.836,-11.302 18.156,-20.459 30.674,-27.22 17.51,-9.289 39.946,-13.995 66.703,-13.995 22.293,0 41.881,3.444 58.22,10.235 16.497,6.86 29.232,16.523 37.85,28.719 8.649,12.244 13.035,26.232 13.035,41.578 0,12.826 -2.548,23.864 -7.575,32.806 -5.014,8.909 -12.08,16.372 -21.004,22.184 -8.742,5.687 -19.465,10.585 -31.87,14.556 -12.253,3.916 -26.111,7.542 -41.187,10.778 -11.912,2.754 -20.6,4.882 -25.779,6.319 -5.053,1.396 -10.098,3.352 -14.995,5.813 -4.721,2.362 -8.455,5.201 -11.103,8.435 -2.501,3.052 -3.717,6.601 -3.717,10.845 0,6.921 3.778,12.763 11.549,17.858 8.063,5.288 18.924,7.968 32.28,7.968 14.38,0 24.843,-2.416 31.103,-7.179 6.45,-4.902 12.074,-11.861 16.72,-20.688 4.014,-6.913 7.632,-11.718 11.118,-14.8 3.748,-3.319 9.147,-5.003 16.047,-5.003 7.595,0 14.032,2.69 19.134,7.996 5.071,5.272 7.643,11.32 7.643,17.977 0,6.918 -1.962,14.068 -5.828,21.253 -3.826,7.114 -9.922,13.964 -18.114,20.364 -8.135,6.355 -18.487,11.519 -30.768,15.343 -12.21,3.797 -26.838,5.72 -43.476,5.72 -20.811,0 -39.202,-2.899 -54.663,-8.617 z" /></g></g><circle
     style="opacity:1;fill:#ff0000;fill-opacity:1;stroke:none;stroke-width:2.52170086;stroke-miterlimit:4;stroke-dasharray:none;stroke-opacity:1"
     id="path4776"
     cx="382.05264"
     cy="392.07416"
     r="103.11712" /></svg>